<svg width="24" height="24" viewBox="0 0 24 24" fill="none" xmlns="http://www.w3.org/2000/svg">
<path d="M2.99979 12.9998H3.99979V19.9998C3.99979 21.1028 4.89679 21.9998 5.99979 21.9998H17.9998C19.1028 21.9998 19.9998 21.1028 19.9998 19.9998V12.9998H20.9998C21.1975 12.9997 21.3908 12.9411 21.5552 12.8312C21.7197 12.7213 21.8478 12.5651 21.9235 12.3824C21.9991 12.1997 22.0189 11.9987 21.9804 11.8048C21.9418 11.6108 21.8466 11.4326 21.7068 11.2928L12.7068 2.29279C12.5193 2.10532 12.265 2 11.9998 2C11.7346 2 11.4803 2.10532 11.2928 2.29279L2.29279 11.2928C2.15298 11.4326 2.05777 11.6108 2.0192 11.8048C1.98064 11.9987 2.00044 12.1997 2.07611 12.3824C2.15178 12.5651 2.27992 12.7213 2.44433 12.8312C2.60874 12.9411 2.80204 12.9997 2.99979 12.9998ZM9.99979 19.9998V14.9998H13.9998V19.9998H9.99979ZM11.9998 4.41379L17.9998 10.4138V19.9998H15.9998V14.9998C15.9998 13.8968 15.1028 12.9998 13.9998 12.9998H9.99979C8.89679 12.9998 7.99979 13.8968 7.99979 14.9998V19.9998H5.99979V10.4138L11.9998 4.41379Z" fill="#141414"/>
</svg>
