<svg width="24" height="24" viewBox="0 0 24 24" fill="none" xmlns="http://www.w3.org/2000/svg">
<path d="M21.7432 12.3321L12.7432 2.33213C12.3642 1.91013 11.6362 1.91013 11.2572 2.33213L2.25723 12.3321C2.1267 12.4754 2.04073 12.6537 2.00983 12.8451C1.97893 13.0365 2.00444 13.2327 2.08324 13.4098C2.16205 13.5869 2.29073 13.7373 2.45358 13.8425C2.61642 13.9476 2.80638 14.0031 3.00023 14.0021H5.00023V21.0021C5.00023 21.2673 5.10559 21.5217 5.29313 21.7092C5.48066 21.8968 5.73502 22.0021 6.00023 22.0021H9.00023C9.26545 22.0021 9.5198 21.8968 9.70734 21.7092C9.89488 21.5217 10.0002 21.2673 10.0002 21.0021V17.0021H14.0002V21.0021C14.0002 21.2673 14.1056 21.5217 14.2931 21.7092C14.4807 21.8968 14.735 22.0021 15.0002 22.0021H18.0002C18.2655 22.0021 18.5198 21.8968 18.7073 21.7092C18.8949 21.5217 19.0002 21.2673 19.0002 21.0021V14.0021H21.0002C21.1943 14.0036 21.3845 13.9484 21.5477 13.8433C21.7108 13.7382 21.8397 13.5877 21.9186 13.4104C21.9975 13.2331 22.0229 13.0367 21.9918 12.8451C21.9606 12.6536 21.8742 12.4753 21.7432 12.3321Z" fill="#141414"/>
</svg>
