<svg width="24" height="24" viewBox="0 0 24 24" fill="none" xmlns="http://www.w3.org/2000/svg">
<path d="M12 2C10.6739 2 9.40215 2.52678 8.46447 3.46447C7.52678 4.40215 7 5.67392 7 7C7 8.32608 7.52678 9.59785 8.46447 10.5355C9.40215 11.4732 10.6739 12 12 12C13.3261 12 14.5979 11.4732 15.5355 10.5355C16.4732 9.59785 17 8.32608 17 7C17 5.67392 16.4732 4.40215 15.5355 3.46447C14.5979 2.52678 13.3261 2 12 2ZM12 10C11.606 10 11.2159 9.9224 10.8519 9.77164C10.488 9.62087 10.1573 9.3999 9.87868 9.12132C9.6001 8.84274 9.37913 8.51203 9.22836 8.14805C9.0776 7.78407 9 7.39397 9 7C9 6.60603 9.0776 6.21593 9.22836 5.85195C9.37913 5.48797 9.6001 5.15726 9.87868 4.87868C10.1573 4.6001 10.488 4.37913 10.8519 4.22836C11.2159 4.0776 11.606 4 12 4C12.7956 4 13.5587 4.31607 14.1213 4.87868C14.6839 5.44129 15 6.20435 15 7C15 7.79565 14.6839 8.55871 14.1213 9.12132C13.5587 9.68393 12.7956 10 12 10ZM21 21V20C21 18.1435 20.2625 16.363 18.9497 15.0503C17.637 13.7375 15.8565 13 14 13H10C8.14348 13 6.36301 13.7375 5.05025 15.0503C3.7375 16.363 3 18.1435 3 20V21H5V20C5 18.6739 5.52678 17.4021 6.46447 16.4645C7.40215 15.5268 8.67392 15 10 15H14C15.3261 15 16.5979 15.5268 17.5355 16.4645C18.4732 17.4021 19 18.6739 19 20V21H21Z" fill="#141414"/>
</svg>
